<svg id="visual" viewBox="0 0 900 300" width="900" height="300" xmlns="http://www.w3.org/2000/svg" xmlns:xlink="http://www.w3.org/1999/xlink" version="1.1"><path d="M0 22L18.8 20.5C37.7 19 75.3 16 112.8 16C150.3 16 187.7 19 225.2 18.5C262.7 18 300.3 14 337.8 14.5C375.3 15 412.7 20 450.2 20C487.7 20 525.3 15 562.8 15C600.3 15 637.7 20 675.2 20C712.7 20 750.3 15 787.8 15C825.3 15 862.7 20 881.3 22.5L900 25L900 0L881.3 0C862.7 0 825.3 0 787.8 0C750.3 0 712.7 0 675.2 0C637.7 0 600.3 0 562.8 0C525.3 0 487.7 0 450.2 0C412.7 0 375.3 0 337.8 0C300.3 0 262.7 0 225.2 0C187.7 0 150.3 0 112.8 0C75.3 0 37.7 0 18.8 0L0 0Z" fill="#1a1819"></path><path d="M0 31L18.8 32.5C37.7 34 75.3 37 112.8 39C150.3 41 187.7 42 225.2 40.5C262.7 39 300.3 35 337.8 36.5C375.3 38 412.7 45 450.2 45.5C487.7 46 525.3 40 562.8 37.5C600.3 35 637.7 36 675.2 37C712.7 38 750.3 39 787.8 39C825.3 39 862.7 38 881.3 37.5L900 37L900 23L881.3 20.5C862.7 18 825.3 13 787.8 13C750.3 13 712.7 18 675.2 18C637.7 18 600.3 13 562.8 13C525.3 13 487.7 18 450.2 18C412.7 18 375.3 13 337.8 12.5C300.3 12 262.7 16 225.2 16.5C187.7 17 150.3 14 112.8 14C75.3 14 37.7 17 18.8 18.5L0 20Z" fill="#1e1b1c"></path><path d="M0 55L18.8 53.5C37.7 52 75.3 49 112.8 48.5C150.3 48 187.7 50 225.2 49C262.7 48 300.3 44 337.8 47C375.3 50 412.7 60 450.2 60.5C487.7 61 525.3 52 562.8 49.5C600.3 47 637.7 51 675.2 51.5C712.7 52 750.3 49 787.8 48C825.3 47 862.7 48 881.3 48.5L900 49L900 35L881.3 35.5C862.7 36 825.3 37 787.8 37C750.3 37 712.7 36 675.2 35C637.7 34 600.3 33 562.8 35.5C525.3 38 487.7 44 450.2 43.5C412.7 43 375.3 36 337.8 34.5C300.3 33 262.7 37 225.2 38.5C187.7 40 150.3 39 112.8 37C75.3 35 37.7 32 18.8 30.5L0 29Z" fill="#211e20"></path><path d="M0 82L18.8 80C37.7 78 75.3 74 112.8 72C150.3 70 187.7 70 225.2 69C262.7 68 300.3 66 337.8 70C375.3 74 412.7 84 450.2 86C487.7 88 525.3 82 562.8 78C600.3 74 637.7 72 675.2 71C712.7 70 750.3 70 787.8 69C825.3 68 862.7 66 881.3 65L900 64L900 47L881.3 46.5C862.7 46 825.3 45 787.8 46C750.3 47 712.7 50 675.2 49.5C637.7 49 600.3 45 562.8 47.5C525.3 50 487.7 59 450.2 58.5C412.7 58 375.3 48 337.8 45C300.3 42 262.7 46 225.2 47C187.7 48 150.3 46 112.8 46.5C75.3 47 37.7 50 18.8 51.5L0 53Z" fill="#322f31"></path><path d="M0 166L18.8 164C37.7 162 75.3 158 112.8 151C150.3 144 187.7 134 225.2 125C262.7 116 300.3 108 337.8 114C375.3 120 412.7 140 450.2 142C487.7 144 525.3 128 562.8 124C600.3 120 637.7 128 675.2 129.5C712.7 131 750.3 126 787.8 119.5C825.3 113 862.7 105 881.3 101L900 97L900 62L881.3 63C862.7 64 825.3 66 787.8 67C750.3 68 712.7 68 675.2 69C637.7 70 600.3 72 562.8 76C525.3 80 487.7 86 450.2 84C412.7 82 375.3 72 337.8 68C300.3 64 262.7 66 225.2 67C187.7 68 150.3 68 112.8 70C75.3 72 37.7 76 18.8 78L0 80Z" fill="#454043"></path><path d="M0 190L18.8 186.5C37.7 183 75.3 176 112.8 169C150.3 162 187.7 155 225.2 145.5C262.7 136 300.3 124 337.8 127.5C375.3 131 412.7 150 450.2 153.5C487.7 157 525.3 145 562.8 143.5C600.3 142 637.7 151 675.2 150.5C712.7 150 750.3 140 787.8 133C825.3 126 862.7 122 881.3 120L900 118L900 95L881.3 99C862.7 103 825.3 111 787.8 117.5C750.3 124 712.7 129 675.2 127.5C637.7 126 600.3 118 562.8 122C525.3 126 487.7 142 450.2 140C412.7 138 375.3 118 337.8 112C300.3 106 262.7 114 225.2 123C187.7 132 150.3 142 112.8 149C75.3 156 37.7 160 18.8 162L0 164Z" fill="#454043"></path><path d="M0 226L18.8 221.5C37.7 217 75.3 208 112.8 198.5C150.3 189 187.7 179 225.2 172.5C262.7 166 300.3 163 337.8 168C375.3 173 412.7 186 450.2 187C487.7 188 525.3 177 562.8 177.5C600.3 178 637.7 190 675.2 188.5C712.7 187 750.3 172 787.8 167C825.3 162 862.7 167 881.3 169.5L900 172L900 116L881.3 118C862.7 120 825.3 124 787.8 131C750.3 138 712.7 148 675.2 148.5C637.7 149 600.3 140 562.8 141.5C525.3 143 487.7 155 450.2 151.5C412.7 148 375.3 129 337.8 125.5C300.3 122 262.7 134 225.2 143.5C187.7 153 150.3 160 112.8 167C75.3 174 37.7 181 18.8 184.5L0 188Z" fill="#454043"></path><path d="M0 244L18.8 244C37.7 244 75.3 244 112.8 234.5C150.3 225 187.7 206 225.2 195C262.7 184 300.3 181 337.8 187C375.3 193 412.7 208 450.2 213C487.7 218 525.3 213 562.8 215C600.3 217 637.7 226 675.2 222C712.7 218 750.3 201 787.8 193C825.3 185 862.7 186 881.3 186.5L900 187L900 170L881.3 167.5C862.7 165 825.3 160 787.8 165C750.3 170 712.7 185 675.2 186.5C637.7 188 600.3 176 562.8 175.5C525.3 175 487.7 186 450.2 185C412.7 184 375.3 171 337.8 166C300.3 161 262.7 164 225.2 170.5C187.7 177 150.3 187 112.8 196.5C75.3 206 37.7 215 18.8 219.5L0 224Z" fill="#322f31"></path><path d="M0 250L18.8 250C37.7 250 75.3 250 112.8 241.5C150.3 233 187.7 216 225.2 206.5C262.7 197 300.3 195 337.8 201.5C375.3 208 412.7 223 450.2 227C487.7 231 525.3 224 562.8 226.5C600.3 229 637.7 241 675.2 237C712.7 233 750.3 213 787.8 205C825.3 197 862.7 201 881.3 203L900 205L900 185L881.3 184.5C862.7 184 825.3 183 787.8 191C750.3 199 712.7 216 675.2 220C637.7 224 600.3 215 562.8 213C525.3 211 487.7 216 450.2 211C412.7 206 375.3 191 337.8 185C300.3 179 262.7 182 225.2 193C187.7 204 150.3 223 112.8 232.5C75.3 242 37.7 242 18.8 242L0 242Z" fill="#211e20"></path><path d="M0 295L18.8 294.5C37.7 294 75.3 293 112.8 293C150.3 293 187.7 294 225.2 292.5C262.7 291 300.3 287 337.8 287C375.3 287 412.7 291 450.2 291.5C487.7 292 525.3 289 562.8 288.5C600.3 288 637.7 290 675.2 291.5C712.7 293 750.3 294 787.8 293.5C825.3 293 862.7 291 881.3 290L900 289L900 203L881.3 201C862.7 199 825.3 195 787.8 203C750.3 211 712.7 231 675.2 235C637.7 239 600.3 227 562.8 224.5C525.3 222 487.7 229 450.2 225C412.7 221 375.3 206 337.8 199.5C300.3 193 262.7 195 225.2 204.5C187.7 214 150.3 231 112.8 239.5C75.3 248 37.7 248 18.8 248L0 248Z" fill="#1e1b1c"></path><path d="M0 301L18.8 301C37.7 301 75.3 301 112.8 301C150.3 301 187.7 301 225.2 301C262.7 301 300.3 301 337.8 301C375.3 301 412.7 301 450.2 301C487.7 301 525.3 301 562.8 301C600.3 301 637.7 301 675.2 301C712.7 301 750.3 301 787.8 301C825.3 301 862.7 301 881.3 301L900 301L900 287L881.3 288C862.7 289 825.3 291 787.8 291.5C750.3 292 712.7 291 675.2 289.5C637.7 288 600.3 286 562.8 286.5C525.3 287 487.7 290 450.2 289.5C412.7 289 375.3 285 337.8 285C300.3 285 262.7 289 225.2 290.5C187.7 292 150.3 291 112.8 291C75.3 291 37.7 292 18.8 292.5L0 293Z" fill="#1a1819"></path></svg>