<svg id="visual" viewBox="0 0 900 300" width="900" height="300" xmlns="http://www.w3.org/2000/svg" xmlns:xlink="http://www.w3.org/1999/xlink" version="1.1"><path d="M0 163L21.5 165.2C43 167.3 86 171.7 128.8 181.7C171.7 191.7 214.3 207.3 257.2 216.5C300 225.7 343 228.3 385.8 228.5C428.7 228.7 471.3 226.3 514.2 216.2C557 206 600 188 642.8 182.3C685.7 176.7 728.3 183.3 771.2 189C814 194.7 857 199.3 878.5 201.7L900 204L900 301L878.5 301C857 301 814 301 771.2 301C728.3 301 685.7 301 642.8 301C600 301 557 301 514.2 301C471.3 301 428.7 301 385.8 301C343 301 300 301 257.2 301C214.3 301 171.7 301 128.8 301C86 301 43 301 21.5 301L0 301Z" fill="#555568"></path><path d="M0 191L21.5 199.3C43 207.7 86 224.3 128.8 224.3C171.7 224.3 214.3 207.7 257.2 200C300 192.3 343 193.7 385.8 198.2C428.7 202.7 471.3 210.3 514.2 215.2C557 220 600 222 642.8 224C685.7 226 728.3 228 771.2 229.2C814 230.3 857 230.7 878.5 230.8L900 231L900 301L878.5 301C857 301 814 301 771.2 301C728.3 301 685.7 301 642.8 301C600 301 557 301 514.2 301C471.3 301 428.7 301 385.8 301C343 301 300 301 257.2 301C214.3 301 171.7 301 128.8 301C86 301 43 301 21.5 301L0 301Z" fill="#6e7b89"></path><path d="M0 263L21.5 259.2C43 255.3 86 247.7 128.8 238.5C171.7 229.3 214.3 218.7 257.2 222.7C300 226.7 343 245.3 385.8 252.8C428.7 260.3 471.3 256.7 514.2 250.7C557 244.7 600 236.3 642.8 229.3C685.7 222.3 728.3 216.7 771.2 216.3C814 216 857 221 878.5 223.5L900 226L900 301L878.5 301C857 301 814 301 771.2 301C728.3 301 685.7 301 642.8 301C600 301 557 301 514.2 301C471.3 301 428.7 301 385.8 301C343 301 300 301 257.2 301C214.3 301 171.7 301 128.8 301C86 301 43 301 21.5 301L0 301Z" fill="#90a2a8"></path><path d="M0 253L21.5 249.5C43 246 86 239 128.8 240.2C171.7 241.3 214.3 250.7 257.2 253.5C300 256.3 343 252.7 385.8 255C428.7 257.3 471.3 265.7 514.2 264.8C557 264 600 254 642.8 251.8C685.7 249.7 728.3 255.3 771.2 261.2C814 267 857 273 878.5 276L900 279L900 301L878.5 301C857 301 814 301 771.2 301C728.3 301 685.7 301 642.8 301C600 301 557 301 514.2 301C471.3 301 428.7 301 385.8 301C343 301 300 301 257.2 301C214.3 301 171.7 301 128.8 301C86 301 43 301 21.5 301L0 301Z" fill="#bbc8c8"></path><path d="M0 289L21.5 285.7C43 282.3 86 275.7 128.8 272.2C171.7 268.7 214.3 268.3 257.2 269.8C300 271.3 343 274.7 385.8 277C428.7 279.3 471.3 280.7 514.2 283.2C557 285.7 600 289.3 642.8 286.8C685.7 284.3 728.3 275.7 771.2 273.2C814 270.7 857 274.3 878.5 276.2L900 278L900 301L878.5 301C857 301 814 301 771.2 301C728.3 301 685.7 301 642.8 301C600 301 557 301 514.2 301C471.3 301 428.7 301 385.8 301C343 301 300 301 257.2 301C214.3 301 171.7 301 128.8 301C86 301 43 301 21.5 301L0 301Z" fill="#e9efec"></path></svg>