<svg id="visual" viewBox="0 0 900 300" width="900" height="300" xmlns="http://www.w3.org/2000/svg" xmlns:xlink="http://www.w3.org/1999/xlink" version="1.1"><path d="M0 158L21.5 161.7C43 165.3 86 172.7 128.8 174.3C171.7 176 214.3 172 257.2 181C300 190 343 212 385.8 220.5C428.7 229 471.3 224 514.2 222.8C557 221.7 600 224.3 642.8 227.3C685.7 230.3 728.3 233.7 771.2 222C814 210.3 857 183.7 878.5 170.3L900 157L900 301L878.5 301C857 301 814 301 771.2 301C728.3 301 685.7 301 642.8 301C600 301 557 301 514.2 301C471.3 301 428.7 301 385.8 301C343 301 300 301 257.2 301C214.3 301 171.7 301 128.8 301C86 301 43 301 21.5 301L0 301Z" fill="#e9efec"></path><path d="M0 256L21.5 245.2C43 234.3 86 212.7 128.8 207.3C171.7 202 214.3 213 257.2 220.2C300 227.3 343 230.7 385.8 236.7C428.7 242.7 471.3 251.3 514.2 251.5C557 251.7 600 243.3 642.8 231.3C685.7 219.3 728.3 203.7 771.2 208C814 212.3 857 236.7 878.5 248.8L900 261L900 301L878.5 301C857 301 814 301 771.2 301C728.3 301 685.7 301 642.8 301C600 301 557 301 514.2 301C471.3 301 428.7 301 385.8 301C343 301 300 301 257.2 301C214.3 301 171.7 301 128.8 301C86 301 43 301 21.5 301L0 301Z" fill="#9ea6a5"></path><path d="M0 277L21.5 271.7C43 266.3 86 255.7 128.8 250.3C171.7 245 214.3 245 257.2 242.8C300 240.7 343 236.3 385.8 232.2C428.7 228 471.3 224 514.2 230.5C557 237 600 254 642.8 263.5C685.7 273 728.3 275 771.2 265.5C814 256 857 235 878.5 224.5L900 214L900 301L878.5 301C857 301 814 301 771.2 301C728.3 301 685.7 301 642.8 301C600 301 557 301 514.2 301C471.3 301 428.7 301 385.8 301C343 301 300 301 257.2 301C214.3 301 171.7 301 128.8 301C86 301 43 301 21.5 301L0 301Z" fill="#5b6264"></path><path d="M0 278L21.5 277.3C43 276.7 86 275.3 128.8 277.7C171.7 280 214.3 286 257.2 285.5C300 285 343 278 385.8 276.2C428.7 274.3 471.3 277.7 514.2 278C557 278.3 600 275.7 642.8 275.3C685.7 275 728.3 277 771.2 275.8C814 274.7 857 270.3 878.5 268.2L900 266L900 301L878.5 301C857 301 814 301 771.2 301C728.3 301 685.7 301 642.8 301C600 301 557 301 514.2 301C471.3 301 428.7 301 385.8 301C343 301 300 301 257.2 301C214.3 301 171.7 301 128.8 301C86 301 43 301 21.5 301L0 301Z" fill="#212529"></path></svg>