<svg id="visual" viewBox="0 0 900 300" width="900" height="300" xmlns="http://www.w3.org/2000/svg" xmlns:xlink="http://www.w3.org/1999/xlink" version="1.1"><path d="M0 222L21.5 221.2C43 220.3 86 218.7 128.8 221.8C171.7 225 214.3 233 257.2 233C300 233 343 225 385.8 218C428.7 211 471.3 205 514.2 203.5C557 202 600 205 642.8 212.3C685.7 219.7 728.3 231.3 771.2 232.3C814 233.3 857 223.7 878.5 218.8L900 214L900 301L878.5 301C857 301 814 301 771.2 301C728.3 301 685.7 301 642.8 301C600 301 557 301 514.2 301C471.3 301 428.7 301 385.8 301C343 301 300 301 257.2 301C214.3 301 171.7 301 128.8 301C86 301 43 301 21.5 301L0 301Z" fill="#90a2a8" stroke-linecap="round" stroke-linejoin="miter"></path></svg>