<svg id="visual" viewBox="0 0 900 300" width="900" height="300" xmlns="http://www.w3.org/2000/svg" xmlns:xlink="http://www.w3.org/1999/xlink" version="1.1"><path d="M0 98L21.5 92.8C43 87.7 86 77.3 128.8 69.7C171.7 62 214.3 57 257.2 59.5C300 62 343 72 385.8 78.7C428.7 85.3 471.3 88.7 514.2 91.8C557 95 600 98 642.8 99C685.7 100 728.3 99 771.2 88.7C814 78.3 857 58.7 878.5 48.8L900 39L900 0L878.5 0C857 0 814 0 771.2 0C728.3 0 685.7 0 642.8 0C600 0 557 0 514.2 0C471.3 0 428.7 0 385.8 0C343 0 300 0 257.2 0C214.3 0 171.7 0 128.8 0C86 0 43 0 21.5 0L0 0Z" fill="#90a2a8" stroke-linecap="round" stroke-linejoin="miter"></path></svg>