<svg id="visual" viewBox="0 0 900 300" width="900" height="300" xmlns="http://www.w3.org/2000/svg" xmlns:xlink="http://www.w3.org/1999/xlink" version="1.1"><rect x="0" y="0" width="900" height="300" fill="#211e20"></rect><path d="M0 94L21.5 92.3C43 90.7 86 87.3 128.8 92.2C171.7 97 214.3 110 257.2 114.7C300 119.3 343 115.7 385.8 119.5C428.7 123.3 471.3 134.7 514.2 135C557 135.3 600 124.7 642.8 111.8C685.7 99 728.3 84 771.2 79C814 74 857 79 878.5 81.5L900 84L900 301L878.5 301C857 301 814 301 771.2 301C728.3 301 685.7 301 642.8 301C600 301 557 301 514.2 301C471.3 301 428.7 301 385.8 301C343 301 300 301 257.2 301C214.3 301 171.7 301 128.8 301C86 301 43 301 21.5 301L0 301Z" fill="#555568"></path><path d="M0 111L21.5 120.3C43 129.7 86 148.3 128.8 154.3C171.7 160.3 214.3 153.7 257.2 152.5C300 151.3 343 155.7 385.8 146.8C428.7 138 471.3 116 514.2 106.7C557 97.3 600 100.7 642.8 101.2C685.7 101.7 728.3 99.3 771.2 98.8C814 98.3 857 99.7 878.5 100.3L900 101L900 301L878.5 301C857 301 814 301 771.2 301C728.3 301 685.7 301 642.8 301C600 301 557 301 514.2 301C471.3 301 428.7 301 385.8 301C343 301 300 301 257.2 301C214.3 301 171.7 301 128.8 301C86 301 43 301 21.5 301L0 301Z" fill="#6e7b89"></path><path d="M0 141L21.5 140.8C43 140.7 86 140.3 128.8 146.5C171.7 152.7 214.3 165.3 257.2 176.2C300 187 343 196 385.8 196.8C428.7 197.7 471.3 190.3 514.2 183.3C557 176.3 600 169.7 642.8 168.5C685.7 167.3 728.3 171.7 771.2 172C814 172.3 857 168.7 878.5 166.8L900 165L900 301L878.5 301C857 301 814 301 771.2 301C728.3 301 685.7 301 642.8 301C600 301 557 301 514.2 301C471.3 301 428.7 301 385.8 301C343 301 300 301 257.2 301C214.3 301 171.7 301 128.8 301C86 301 43 301 21.5 301L0 301Z" fill="#90a2a8"></path><path d="M0 199L21.5 204.3C43 209.7 86 220.3 128.8 222C171.7 223.7 214.3 216.3 257.2 218C300 219.7 343 230.3 385.8 226.5C428.7 222.7 471.3 204.3 514.2 199.8C557 195.3 600 204.7 642.8 213.7C685.7 222.7 728.3 231.3 771.2 236.2C814 241 857 242 878.5 242.5L900 243L900 301L878.5 301C857 301 814 301 771.2 301C728.3 301 685.7 301 642.8 301C600 301 557 301 514.2 301C471.3 301 428.7 301 385.8 301C343 301 300 301 257.2 301C214.3 301 171.7 301 128.8 301C86 301 43 301 21.5 301L0 301Z" fill="#bbc8c8"></path><path d="M0 241L21.5 240.8C43 240.7 86 240.3 128.8 245.3C171.7 250.3 214.3 260.7 257.2 264.8C300 269 343 267 385.8 259.3C428.7 251.7 471.3 238.3 514.2 237.3C557 236.3 600 247.7 642.8 249.7C685.7 251.7 728.3 244.3 771.2 239.5C814 234.7 857 232.3 878.5 231.2L900 230L900 301L878.5 301C857 301 814 301 771.2 301C728.3 301 685.7 301 642.8 301C600 301 557 301 514.2 301C471.3 301 428.7 301 385.8 301C343 301 300 301 257.2 301C214.3 301 171.7 301 128.8 301C86 301 43 301 21.5 301L0 301Z" fill="#e9efec"></path></svg>